<svg width="36" height="30" viewBox="0 0 36 30" fill="none" xmlns="http://www.w3.org/2000/svg">
<path d="M23.5921 28.9999H7.07075L7.61747 26.0359C7.89036 25.862 7.82214 24.2437 7.75392 23.4563L7.61747 22.5143C7.38552 22.1318 8.68059 20.8671 9.35712 20.2826L10.4998 18.2537L9.937 18.6595L10.0223 17.3697L10.3804 16.2828L9.66411 17.5001V19.2391L7.27637 22.0796V22.9926L6.04838 23.6447H5.04211C4.16887 23.6679 3.84824 23.1423 3.79708 22.8766C3.55148 23.3741 4.16093 23.7119 4.49635 23.8186C3.66406 24.3403 3.56968 24.7896 3.62653 24.949L2.39854 24.8621L2.2621 25.0649C3.42186 24.8215 3.65495 25.4466 3.62653 25.7896L6.62826 26.1519H1L2.79081 22.5143C2.79081 21.3782 3.75728 21.1231 4.24051 21.1376L5.53672 18.2537L5.04211 18.6595C3.66404 18.8102 2.67142 18.1136 2.34737 17.7465C2.08098 16.5175 2.45836 15.6964 2.68035 15.4395L4.75944 13.7689C4.97518 13.2959 4.84933 13.0593 4.75944 13.0002C4.74552 13.6588 4.57386 13.6491 4.48977 13.562C3.68945 12.9233 3.79674 12.1132 3.95042 11.7879C3.95738 12.0245 4.40103 12.1458 4.62198 12.1769C3.98599 11.9608 4.35699 11.0685 4.62198 10.6494C5.63955 12.0283 5.86745 12.6592 5.8542 12.8023C6.10859 13.2755 4.52924 14.6942 3.70777 15.3443C2.3404 16.1806 3.13803 17.2396 3.70777 17.6645C5.87011 18.0016 8.23916 15.5613 9.15338 14.299C11.2839 11.0147 12.998 9.3484 13.5887 8.92578C14.7636 8.13283 15.9016 7.88169 16.3237 7.85524C15.4298 8.47014 15.2418 9.97423 15.2595 10.6494C15.1829 11.4379 16.8026 12.6358 17.622 13.1361C17.2304 12.8757 16.5011 12.0993 16.1853 11.7436C15.3765 10.7091 15.9406 9.14834 16.3237 8.49727C17.141 7.39769 18.6437 7.09868 19.2928 7.08662H23.4006C23.8689 7.2313 24.6741 6.71286 25.0182 6.43555C24.9842 7.00704 24.4861 7.43325 24.2414 7.57492C24.0966 7.71237 21.6341 8.16872 20.4209 8.37972C19.6036 8.66185 19.2361 9.35331 19.1545 9.66377C18.782 10.4018 21.2616 11.6947 21.2616 11.6441C21.2616 11.6036 20.1619 10.7169 19.6121 10.2787C19.246 9.69271 19.9163 9.13259 20.2971 8.92578C23.518 10.183 24.5775 11.8594 24.507 11.8594C24.4506 11.8594 23.8494 11.7496 23.5558 11.6947V11.8594C24.5845 12.039 25.194 12.5628 25.3701 12.8023C25.3419 13.8081 27.3429 13.9198 28.347 13.85C29.1079 14.0655 29.4508 12.024 29.5271 10.9763C29.8231 10.3058 30.6134 9.88867 30.9715 9.76394C30.6333 10.0034 30.5136 10.3926 30.4959 10.5572V14.299C30.0027 16.2507 27.1312 16.14 25.7571 15.8407L25.6348 15.0096C25.5479 15.6745 24.7473 17.0566 24.3578 17.6645C25.0751 19.7516 23.3525 20.358 22.4016 20.4003C21.2931 20.6219 19.7529 19.0074 19.1214 18.1724C17.2254 17.0249 16.968 15.8089 17.0763 15.3443C16.3372 16.7295 17.9939 17.9615 18.9147 18.4044C20.0595 20.3607 21.4057 20.7867 21.9357 20.7552C21.0453 22.344 23.2925 25.0019 24.5274 26.1323L30.3627 26.8348H20.8386V25.2676C20.6223 24.2084 19.1903 23.205 18.5013 22.8358C18.8458 22.3224 19.5157 21.2875 19.4394 21.255C19.3631 21.2226 19.1956 21.4037 19.1214 21.4982L17.7858 23.16C17.7349 23.441 16.535 23.2771 15.9414 23.16C15.4835 22.8682 14.0652 22.5791 13.4133 22.471C15.1559 20.7633 15.422 19.85 15.3372 19.6068C15.3499 19.7365 13.8373 21.4262 13.0794 22.2548C11.871 23.3248 13.7525 26.4655 14.8443 27.9021L23.5921 28.9999Z" fill="#563887" stroke="#FCF7F1" stroke-width="0.2"/>
<path d="M21.79 15.9408L20.7947 14.793L20.6951 15.4696C20.6155 15.8176 21.3919 16.0012 21.79 16.0495V15.9408Z" fill="white" stroke="#FCF7F1" stroke-width="0.2"/>
<path d="M30.1838 3.88996C24.42 -0.125159 18.6519 2.21699 16.4883 3.88996C20.3238 0.0574829 26.1647 0.846154 28.6058 1.71955C33.4437 3.51208 34.8848 7.81031 35.0006 9.73536C34.8752 16.0933 29.1853 18.4514 26.356 18.8356C26.7182 18.1762 27.283 17.7365 27.5201 17.5992C28.0375 17.5552 29.5115 16.6407 30.1838 16.189C36.5188 10.9385 32.8234 5.80191 30.1838 3.88996Z" fill="#D3DDE6" stroke="#D3DDE6" stroke-width="1.65863"/>
</svg>
