<svg width="22" height="26" viewBox="0 0 22 26" fill="none" xmlns="http://www.w3.org/2000/svg">
<path d="M10.8084 1.96387C6.6958 1.96387 3.35356 5.15892 3.35356 9.09038V12.523C3.35356 13.2475 3.03052 14.3521 2.64536 14.9698L1.21653 17.2384C0.334376 18.6399 0.943184 20.1959 2.55839 20.7185C7.91341 22.4288 13.6909 22.4288 19.0459 20.7185C20.5493 20.2434 21.2078 18.5449 20.3878 17.2384L18.9589 14.9698C18.5862 14.3521 18.2631 13.2475 18.2631 12.523V9.09038C18.2631 5.1708 14.9085 1.96387 10.8084 1.96387Z" stroke="black" stroke-width="1.62322" stroke-miterlimit="10" stroke-linecap="round"/>
<path d="M13.1059 2.30809C12.7207 2.20119 12.3232 2.11805 11.9131 2.07054C10.7204 1.92801 9.57731 2.01115 8.50879 2.30809C8.8691 1.42915 9.76368 0.811523 10.8073 0.811523C11.851 0.811523 12.7456 1.42915 13.1059 2.30809Z" stroke="black" stroke-width="1.62322" stroke-miterlimit="10" stroke-linecap="round" stroke-linejoin="round"/>
<path d="M14.5349 21.1455C14.5349 23.1053 12.8575 24.7088 10.8075 24.7088C9.78865 24.7088 8.84438 24.3049 8.17345 23.6635C7.50252 23.0222 7.08008 22.1195 7.08008 21.1455" stroke="black" stroke-width="1.62322" stroke-miterlimit="10"/>
</svg>
