<svg width="30" height="47" viewBox="0 0 30 47" fill="none" xmlns="http://www.w3.org/2000/svg">
<path d="M14.9353 22.457C10.8227 22.457 7.48052 25.6521 7.48052 29.5835V33.0162C7.48052 33.7407 7.15748 34.8453 6.77231 35.4629L5.34348 37.7315C4.46133 39.1331 5.07014 40.689 6.68534 41.2116C12.0404 42.922 17.8178 42.922 23.1728 41.2116C24.6762 40.7365 25.3347 39.0381 24.5147 37.7315L23.0859 35.4629C22.7131 34.8453 22.3901 33.7407 22.3901 33.0162V29.5835C22.3901 25.664 19.0354 22.457 14.9353 22.457Z" stroke="black" stroke-width="1.62322" stroke-miterlimit="10" stroke-linecap="round"/>
<path d="M17.2329 22.8013C16.8477 22.6944 16.4501 22.6112 16.0401 22.5637C14.8473 22.4212 13.7043 22.5043 12.6357 22.8013C12.9961 21.9223 13.8906 21.3047 14.9343 21.3047C15.978 21.3047 16.8725 21.9223 17.2329 22.8013Z" stroke="black" stroke-width="1.62322" stroke-miterlimit="10" stroke-linecap="round" stroke-linejoin="round"/>
<path d="M18.6618 41.6387C18.6618 43.5985 16.9845 45.2019 14.9344 45.2019C13.9156 45.2019 12.9713 44.7981 12.3004 44.1567C11.6295 43.5153 11.207 42.6126 11.207 41.6387" stroke="black" stroke-width="1.62322" stroke-miterlimit="10"/>
</svg>
